<svg width="137" height="138" viewBox="0 0 137 138" fill="none" xmlns="http://www.w3.org/2000/svg">
<path d="M78.4 124.942C47.281 130.358 17.6638 109.52 12.2484 78.4006C6.83301 47.2814 27.6701 17.6642 58.7893 12.2488C89.909 6.8334 119.526 27.6705 124.941 58.7898C130.357 89.9086 109.52 119.527 78.4 124.942Z" stroke="#D9D9D9" stroke-opacity="0.2" stroke-width="21.1827"/>
<path d="M11.8245 71.7162C10.536 71.5902 9.51181 71.1192 8.75191 70.3032C7.99291 69.4802 7.67531 68.4362 7.79921 67.1722C7.90881 66.0552 8.30741 65.18 8.99511 64.5476C9.67551 63.9062 10.5563 63.5726 11.6374 63.5469L11.5211 64.7335C10.7367 64.7554 10.113 64.9865 9.65001 65.4269C9.17871 65.8665 8.90431 66.4822 8.82681 67.2732C8.73561 68.2022 8.97481 68.9542 9.54421 69.5292C10.1062 70.0942 10.9051 70.4282 11.9408 70.5302C12.9765 70.6312 13.829 70.4592 14.4984 70.0152C15.1677 69.5702 15.5484 68.8782 15.6403 67.9412C15.7179 67.1502 15.5682 66.4932 15.1913 65.9701C14.8144 65.4474 14.2434 65.0992 13.4783 64.9253L13.5946 63.7388C14.6583 63.9748 15.4656 64.4739 16.0167 65.2359C16.5603 65.9891 16.7774 66.9242 16.6679 68.0412C16.5439 69.3052 16.0297 70.2682 15.1251 70.9282C14.2214 71.5812 13.1211 71.8432 11.8245 71.7162Z" fill="white"/>
<path d="M16.4518 62.571L8.08411 60.3195L8.85371 57.4591C9.14751 56.3671 9.54121 55.5821 10.0347 55.1039C10.5304 54.6178 11.2174 54.4929 12.0957 54.7292C13.2193 55.0316 13.722 55.7651 13.6038 56.9297L13.9124 57.0128L14.1934 55.9683C14.3254 55.4777 14.6288 55.2963 15.1036 55.424L18.1539 56.2448L17.8442 57.3961L14.5683 56.5146L13.4857 60.5383L16.7616 61.4197L16.4518 62.571ZM12.4887 60.27L12.9485 58.5609C13.0337 58.2443 13.0939 57.989 13.1292 57.7948C13.1666 57.5928 13.1842 57.3854 13.1821 57.1726C13.182 56.952 13.1415 56.7714 13.0605 56.6308C12.9796 56.4902 12.8537 56.3588 12.683 56.2365C12.5043 56.112 12.2726 56.0115 11.9877 55.9348C11.7028 55.8582 11.4559 55.8299 11.2468 55.8501C11.0377 55.8702 10.8629 55.9207 10.7223 56.0017C10.5817 56.0827 10.4561 56.2186 10.3453 56.4094C10.2367 56.5923 10.1479 56.7805 10.0788 56.9741C10.0119 57.1597 9.93591 57.4108 9.85071 57.7273L9.39081 59.4365L12.4887 60.27Z" fill="white"/>
<path d="M12.5413 45.3726L13.0684 44.208L16.7937 49.3614L19.6603 50.6589L19.1687 51.745L16.302 50.4476L9.97681 51.0386L10.5039 49.8741L15.1917 49.4728L15.8971 49.7921L16.034 49.4898L15.3285 49.1705L12.5413 45.3726Z" fill="white"/>
<path d="M15.2495 39.3284C15.5639 38.8389 15.8684 38.4404 16.1632 38.133C16.4579 37.8256 16.7857 37.5881 17.1464 37.4205C17.5003 37.2485 17.8836 37.1976 18.2962 37.2678C18.7133 37.331 19.1597 37.5154 19.6354 37.8209C20.1112 38.1264 20.4647 38.4555 20.6958 38.8084C20.9313 39.1544 21.0479 39.5263 21.0457 39.9241C21.0366 40.3175 20.9536 40.7122 20.7967 41.1081C20.6399 41.504 20.4043 41.9468 20.09 42.4363L19.3529 43.5844L21.8041 45.1582L21.16 46.1615L13.8683 41.4797L15.2495 39.3284ZM19.2411 41.8475C19.4536 41.5165 19.6135 41.2296 19.7207 40.9868C19.821 40.7396 19.8814 40.4863 19.9019 40.2268C19.9269 39.9604 19.8647 39.716 19.7154 39.4936C19.5636 39.2598 19.3223 39.0367 18.9913 38.8241C18.6603 38.6116 18.3604 38.4872 18.0916 38.451C17.8203 38.4034 17.5687 38.4463 17.3369 38.5799C17.1095 38.7066 16.9077 38.8691 16.7316 39.0676C16.5485 39.2617 16.3508 39.5243 16.1383 39.8552L15.3812 41.0343L18.4841 43.0265L19.2411 41.8475Z" fill="white"/>
<path d="M22.8971 28.5332L23.6734 29.2139L21.7124 31.4504L27.4516 36.4825L26.6656 37.379L20.9264 32.3469L18.9654 34.5834L18.1891 33.9027L22.8971 28.5332Z" fill="white"/>
<path d="M26.6459 29.7561C25.8369 28.7453 25.4591 27.6833 25.5126 26.5699C25.566 25.4566 26.0885 24.503 27.0801 23.7094C28.0653 22.9208 29.1069 22.6224 30.2049 22.814C31.303 23.0057 32.2565 23.6069 33.0656 24.6177C33.8797 25.6349 34.2601 26.7001 34.2066 27.8135C34.1531 28.9269 33.6338 29.8778 32.6486 30.6664C31.6571 31.4601 30.6123 31.7611 29.5142 31.5694C28.4162 31.3777 27.4601 30.7733 26.6459 29.7561ZM27.5767 29.0111C28.227 29.8235 28.9419 30.3167 29.7212 30.4905C30.5006 30.6644 31.2614 30.4543 32.0035 29.8603C32.7455 29.2664 33.1139 28.5727 33.1086 27.7792C33.1097 26.9807 32.7851 26.1752 32.1348 25.3627C31.4896 24.5567 30.7773 24.0667 29.9979 23.8929C29.2249 23.7139 28.4674 23.9214 27.7253 24.5154C26.9832 25.1094 26.6116 25.8056 26.6106 26.6042C26.6095 27.4027 26.9315 28.205 27.5767 29.0111Z" fill="white"/>
<path d="M37.3566 16.066C37.8764 15.8048 38.3414 15.617 38.7516 15.5026C39.1618 15.3881 39.5649 15.3507 39.9607 15.3902C40.3529 15.4224 40.7087 15.5738 41.028 15.8443C41.3547 16.1112 41.645 16.4972 41.8988 17.0024C42.1527 17.5076 42.2892 17.9709 42.3084 18.3922C42.3349 18.81 42.2459 19.1894 42.0413 19.5306C41.8331 19.8645 41.5607 20.1619 41.2241 20.4227C40.8875 20.6836 40.4593 20.9447 39.9394 21.2059L38.7204 21.8185L40.0283 24.4213L38.963 24.9567L35.0722 17.214L37.3566 16.066ZM39.5088 20.2668C39.8602 20.0902 40.1439 19.9247 40.3598 19.7704C40.572 19.6087 40.753 19.4214 40.9028 19.2086C41.06 18.9921 41.131 18.7501 41.1158 18.4826C41.1042 18.2041 41.0101 17.8891 40.8335 17.5377C40.6569 17.1863 40.4622 16.9265 40.2493 16.7583C40.0401 16.5792 39.8017 16.4881 39.5342 16.4849C39.274 16.4781 39.0175 16.5153 38.7648 16.5964C38.5085 16.6702 38.2046 16.7954 37.8531 16.972L36.6011 17.6012L38.2568 20.8959L39.5088 20.2668Z" fill="white"/>
<path d="M42.2947 13.1774L43.4076 12.7498L48.8289 19.5943L49.1387 19.4752L48.5822 10.7616L49.6951 10.334L50.2559 19.4015L47.9497 20.2876L42.2947 13.1774Z" fill="white"/>
<path d="M54.9972 8.90111C55.572 8.81121 56.0722 8.77451 56.4977 8.79091C56.9232 8.80731 57.3184 8.89471 57.6833 9.05331C58.0469 9.20381 58.3394 9.4566 58.5608 9.8118C58.7903 10.1657 58.9487 10.622 59.0361 11.1806C59.1234 11.7392 59.1119 12.2221 59.0014 12.6291C58.899 13.035 58.6982 13.3691 58.3992 13.6315C58.099 13.8858 57.7487 14.0857 57.3485 14.2312C56.9483 14.3767 56.4608 14.4945 55.886 14.5843L54.538 14.7951L54.9881 17.6732L53.8102 17.8574L52.4713 9.29611L54.9972 8.90111ZM55.7629 13.5586C56.1515 13.4978 56.4721 13.4269 56.7249 13.3459C56.9763 13.2568 57.2059 13.1339 57.4136 12.977C57.6294 12.8188 57.7709 12.6101 57.8382 12.3507C57.9123 12.0821 57.9189 11.7534 57.8582 11.3648C57.7974 10.9762 57.6913 10.6693 57.54 10.4442C57.3955 10.2097 57.1964 10.0501 56.9426 9.96541C56.697 9.87941 56.4414 9.83641 56.176 9.83641C55.9094 9.82841 55.5817 9.85471 55.1931 9.91551L53.8088 10.132L54.3785 13.7751L55.7629 13.5586Z" fill="white"/>
<path d="M64.421 15.6887L65.0043 7.04297L67.96 7.24237C69.088 7.31847 69.935 7.55217 70.5 7.94347C71.073 8.33527 71.329 8.98487 71.267 9.89237C71.189 11.0533 70.567 11.6889 69.402 11.7992L69.38 12.1181L70.459 12.1909C70.966 12.2251 71.203 12.4874 71.17 12.978L70.957 16.1296L69.768 16.0494L69.996 12.6647L65.8389 12.3842L65.6106 15.7689L64.421 15.6887ZM65.9084 11.3541L67.674 11.4732C68.001 11.4953 68.264 11.5048 68.461 11.5017C68.666 11.4991 68.873 11.4761 69.081 11.4327C69.298 11.3898 69.467 11.315 69.589 11.2082C69.712 11.1015 69.816 10.9525 69.903 10.7613C69.99 10.5618 70.044 10.315 70.064 10.0206C70.084 9.72627 70.063 9.47857 70.003 9.27737C69.943 9.07617 69.859 8.91447 69.752 8.79237C69.646 8.67017 69.488 8.57327 69.279 8.50167C69.079 8.43067 68.877 8.38007 68.674 8.34997C68.478 8.32037 68.217 8.29457 67.89 8.27247L66.124 8.15337L65.9084 11.3541Z" fill="white"/>
<path d="M73.722 11.6454C73.918 10.3657 74.445 9.36866 75.3 8.65436C76.156 7.94006 77.212 7.67926 78.467 7.87196C79.714 8.06336 80.639 8.62806 81.241 9.56606C81.843 10.504 82.046 11.6129 81.85 12.8926C81.652 14.1804 81.126 15.1814 80.27 15.8957C79.414 16.61 78.363 16.8714 77.115 16.68C75.86 16.4874 74.931 15.922 74.329 14.984C73.727 14.0461 73.524 12.9332 73.722 11.6454ZM74.901 11.8262C74.743 12.8548 74.864 13.7148 75.263 14.4062C75.663 15.0975 76.332 15.5153 77.272 15.6595C78.211 15.8037 78.971 15.6053 79.552 15.0643C80.14 14.5245 80.514 13.7404 80.671 12.7117C80.828 11.6912 80.706 10.8353 80.307 10.1439C79.915 9.45376 79.25 9.03666 78.31 8.89246C77.371 8.74826 76.607 8.94606 76.018 9.48576C75.43 10.0256 75.057 10.8057 74.901 11.8262Z" fill="white"/>
<path d="M82.243 17.5114L85.198 9.36523L87.485 10.1949C88.579 10.5916 89.329 11.0247 89.734 11.4941C90.146 11.9663 90.215 12.5837 89.938 13.3463C89.558 14.394 88.789 14.7601 87.631 14.4446L87.522 14.745C89.03 15.3444 89.554 16.2796 89.093 17.5506C88.805 18.3441 88.318 18.7992 87.63 18.916C86.943 19.0328 86.06 18.8957 84.982 18.5045L82.243 17.5114ZM85.078 13.1919L86.326 13.6445C87.011 13.8931 87.54 13.9977 87.912 13.9582C88.286 13.911 88.564 13.637 88.746 13.1363C88.827 12.9129 88.861 12.7116 88.847 12.5324C88.842 12.356 88.804 12.2072 88.735 12.0862C88.676 11.9602 88.561 11.8444 88.39 11.7389C88.222 11.6256 88.054 11.5344 87.888 11.4652C87.724 11.3884 87.499 11.2983 87.214 11.1949L85.966 10.7423L85.078 13.1919ZM83.716 16.9473L85.415 17.5633C86.154 17.8315 86.725 17.9384 87.129 17.8842C87.535 17.8222 87.84 17.5101 88.044 16.9477C88.236 16.4162 88.192 15.9861 87.91 15.6573C87.636 15.3313 87.141 15.0384 86.425 14.7785L84.726 14.1625L83.716 16.9473Z" fill="white"/>
<path d="M91.803 15.8298C92.503 14.7403 93.388 14.0432 94.461 13.7383C95.533 13.4334 96.603 13.6241 97.672 14.3103C98.734 14.9921 99.349 15.8839 99.518 16.9857C99.687 18.0874 99.422 19.183 98.723 20.2725C98.019 21.3688 97.131 22.0694 96.058 22.3743C94.986 22.6791 93.919 22.4907 92.857 21.8089C91.789 21.1227 91.17 20.2287 91.001 19.1269C90.832 18.0252 91.099 16.9261 91.803 15.8298ZM92.806 16.4739C92.244 17.3496 92.005 18.1845 92.089 18.9786C92.173 19.7727 92.615 20.4265 93.415 20.9401C94.215 21.4537 94.99 21.5812 95.74 21.3228C96.497 21.0688 97.157 20.504 97.719 19.6283C98.277 18.7595 98.514 17.9281 98.43 17.134C98.353 16.3443 97.914 15.6927 97.114 15.1791C96.314 14.6656 95.536 14.5358 94.779 14.7898C94.022 15.0437 93.364 15.6051 92.806 16.4739Z" fill="white"/>
<path d="M108.508 22.0955L107.831 22.8743L105.587 20.9215L100.576 26.679L99.677 25.8963L104.688 20.1388L102.444 18.1859L103.122 17.4072L108.508 22.0955Z" fill="white"/>
<path d="M110.11 32.736C108.906 33.7364 107.579 33.3638 106.128 31.6182C105.206 30.5091 104.772 29.5381 104.825 28.7051C104.885 27.8669 105.337 27.0969 106.182 26.3951L106.944 27.312C106.251 27.8881 105.919 28.4568 105.949 29.0182C105.99 29.5806 106.32 30.2336 106.938 30.9772C107.409 31.5443 107.835 31.9037 108.217 32.0553C108.599 32.2068 108.963 32.1386 109.31 31.8505C109.436 31.7457 109.533 31.6326 109.603 31.511C109.684 31.3904 109.723 31.2457 109.721 31.0768C109.731 30.9089 109.733 30.7636 109.727 30.6408C109.726 30.5244 109.683 30.3517 109.6 30.1229C109.528 29.8952 109.47 29.7298 109.427 29.627C109.396 29.5252 109.318 29.3346 109.192 29.0554C109.078 28.7772 109.002 28.5956 108.963 28.5106C108.796 28.1169 108.665 27.7936 108.572 27.5407C108.485 27.294 108.406 27.0133 108.336 26.6984C108.266 26.3836 108.244 26.1139 108.271 25.8894C108.297 25.665 108.368 25.4358 108.483 25.202C108.603 24.9629 108.781 24.7465 109.014 24.5527C110.129 23.6257 111.355 23.9656 112.69 25.5725C113.45 26.4863 113.789 27.3496 113.708 28.1626C113.627 28.9756 113.269 29.6466 112.632 30.1756L111.87 29.2587C112.374 28.8397 112.611 28.3611 112.579 27.8228C112.558 27.2856 112.331 26.7555 111.896 26.2325C111.069 25.2368 110.365 24.9799 109.785 25.4618C109.495 25.7027 109.366 26.0021 109.397 26.3599C109.44 26.7187 109.612 27.2787 109.914 28.0397C110.355 29.1219 110.623 29.8536 110.715 30.2345C110.979 31.347 110.777 32.1808 110.11 32.736Z" fill="white"/>
<path d="M125.583 60.2296C126.878 60.2527 127.936 60.6403 128.759 61.3926C129.581 62.153 129.981 63.1682 129.958 64.4381C129.938 65.5605 129.611 66.4643 128.976 67.1493C128.349 67.8433 127.497 68.2463 126.422 68.3583L126.443 67.1663C127.223 67.0813 127.826 66.8013 128.253 66.3253C128.687 65.8496 128.912 65.2144 128.926 64.4197C128.943 63.4857 128.644 62.7551 128.031 62.2278C127.425 61.7089 126.602 61.4402 125.562 61.4216C124.521 61.4031 123.685 61.6422 123.054 62.1391C122.422 62.6359 122.098 63.3555 122.081 64.2976C122.067 65.0923 122.268 65.7352 122.686 66.2263C123.103 66.7173 123.7 67.0183 124.477 67.1313L124.455 68.3233C123.376 68.1723 122.532 67.7393 121.921 67.0243C121.319 66.3163 121.028 65.4016 121.048 64.2792C121.071 63.0093 121.507 62.0091 122.356 61.2784C123.205 60.556 124.28 60.2063 125.583 60.2296Z" fill="white"/>
<path d="M121.723 69.5664L130.248 71.1234L129.715 74.0374C129.512 75.1504 129.184 75.9654 128.731 76.4824C128.277 77.0074 127.603 77.1884 126.708 77.0244C125.564 76.8154 125.002 76.1254 125.025 74.9554L124.71 74.8974L124.516 75.9614C124.425 76.4614 124.137 76.6674 123.653 76.5794L120.546 76.0114L120.76 74.8384L124.097 75.4484L124.846 71.3494L121.509 70.7394L121.723 69.5664ZM125.862 71.5344L125.544 73.2754C125.485 73.5984 125.446 73.8574 125.427 74.0544C125.406 74.2584 125.405 74.4664 125.425 74.6784C125.443 74.8984 125.498 75.0754 125.591 75.2084C125.683 75.3424 125.819 75.4624 125.999 75.5704C126.187 75.6804 126.427 75.7614 126.717 75.8144C127.007 75.8674 127.256 75.8754 127.462 75.8374C127.669 75.8004 127.839 75.7364 127.972 75.6434C128.106 75.5514 128.22 75.4054 128.315 75.2064C128.408 75.0154 128.481 74.8204 128.534 74.6214C128.585 74.4314 128.641 74.1744 128.7 73.8524L129.018 72.1114L125.862 71.5344Z" fill="white"/>
<path d="M127.046 86.4067L126.614 87.6097L122.485 82.7737L119.523 81.7117L119.926 80.5897L122.888 81.6517L129.144 80.5527L128.713 81.7557L124.073 82.5337L123.344 82.2727L123.232 82.5847L123.961 82.8457L127.046 86.4067Z" fill="white"/>
<path d="M124.893 92.591C124.618 93.104 124.347 93.525 124.077 93.855C123.808 94.185 123.5 94.448 123.154 94.644C122.815 94.844 122.437 94.925 122.02 94.888C121.6 94.859 121.14 94.711 120.641 94.444C120.143 94.178 119.764 93.878 119.505 93.545C119.243 93.218 119.097 92.857 119.067 92.46C119.045 92.068 119.096 91.667 119.221 91.26C119.345 90.853 119.545 90.393 119.819 89.88L120.462 88.676L117.893 87.304L118.455 86.252L126.097 90.336L124.893 92.591ZM120.712 90.399C120.527 90.746 120.391 91.045 120.303 91.295C120.223 91.55 120.183 91.807 120.183 92.067C120.18 92.335 120.261 92.573 120.428 92.783C120.598 93.004 120.856 93.207 121.203 93.393C121.55 93.578 121.859 93.678 122.13 93.693C122.404 93.718 122.651 93.655 122.872 93.504C123.088 93.359 123.276 93.181 123.436 92.969C123.603 92.761 123.779 92.484 123.965 92.137L124.625 90.901L121.373 89.163L120.712 90.399Z" fill="white"/>
<path d="M118.067 104.114L117.239 103.497L119.015 101.111L112.891 96.5536L113.603 95.5977L119.726 100.155L121.502 97.7686L122.331 98.3846L118.067 104.114Z" fill="white"/>
<path d="M114.339 103.107C115.227 104.049 115.69 105.077 115.727 106.191C115.763 107.305 115.32 108.298 114.395 109.169C113.477 110.035 112.463 110.416 111.353 110.314C110.243 110.212 109.244 109.69 108.356 108.748C107.462 107.8 106.997 106.769 106.96 105.655C106.924 104.541 107.364 103.551 108.283 102.685C109.207 101.814 110.224 101.429 111.334 101.532C112.444 101.634 113.445 102.159 114.339 103.107ZM113.472 103.925C112.758 103.168 112.005 102.734 111.215 102.624C110.424 102.513 109.682 102.784 108.991 103.436C108.299 104.088 107.988 104.81 108.058 105.6C108.121 106.396 108.51 107.173 109.224 107.93C109.932 108.681 110.681 109.112 111.472 109.222C112.257 109.338 112.996 109.07 113.687 108.418C114.379 107.766 114.693 107.042 114.629 106.246C114.566 105.45 114.18 104.676 113.472 103.925Z" fill="white"/>
<path d="M104.799 117.643C104.303 117.946 103.855 118.172 103.456 118.32C103.056 118.468 102.658 118.538 102.26 118.532C101.867 118.532 101.499 118.411 101.159 118.168C100.811 117.929 100.49 117.568 100.195 117.086C99.9 116.603 99.726 116.153 99.672 115.734C99.611 115.32 99.668 114.935 99.844 114.578C100.024 114.228 100.271 113.909 100.585 113.621C100.898 113.333 101.304 113.038 101.8 112.734L102.964 112.023L101.445 109.537L102.463 108.916L106.981 116.31L104.799 117.643ZM102.307 113.635C101.971 113.84 101.702 114.028 101.5 114.2C101.302 114.378 101.137 114.58 101.005 114.804C100.866 115.033 100.816 115.28 100.853 115.546C100.888 115.822 101.007 116.128 101.213 116.464C101.418 116.799 101.633 117.042 101.859 117.192C102.083 117.353 102.328 117.425 102.595 117.405C102.854 117.391 103.107 117.332 103.352 117.231C103.601 117.136 103.894 116.986 104.23 116.781L105.425 116.05L103.503 112.904L102.307 113.635Z" fill="white"/>
<path d="M100.386 120.546L99.347 121.13L92.993 115.142L92.703 115.304L94.514 123.846L93.475 124.43L91.608 115.539L93.762 114.329L100.386 120.546Z" fill="white"/>
<path d="M87.882 126.264C87.317 126.4 86.821 126.478 86.396 126.496C85.97 126.514 85.569 126.459 85.193 126.33C84.818 126.209 84.506 125.981 84.257 125.645C83.999 125.311 83.804 124.869 83.672 124.319C83.54 123.77 83.512 123.287 83.589 122.873C83.659 122.46 83.832 122.111 84.108 121.825C84.387 121.547 84.72 121.32 85.107 121.142C85.494 120.965 85.971 120.808 86.536 120.672L87.863 120.352L87.181 117.52L88.34 117.241L90.368 125.666L87.882 126.264ZM86.742 121.684C86.36 121.776 86.046 121.873 85.8 121.974C85.557 122.083 85.338 122.224 85.144 122.397C84.942 122.573 84.817 122.792 84.771 123.056C84.719 123.33 84.739 123.658 84.831 124.04C84.923 124.423 85.054 124.72 85.223 124.932C85.386 125.154 85.597 125.297 85.857 125.361C86.109 125.427 86.367 125.449 86.632 125.428C86.898 125.414 87.222 125.361 87.605 125.269L88.967 124.941L88.104 121.356L86.742 121.684Z" fill="white"/>
<path d="M77.696 120.323L77.806 128.987L74.844 129.025C73.714 129.04 72.851 128.874 72.257 128.53C71.654 128.185 71.347 127.558 71.335 126.648C71.32 125.485 71.889 124.802 73.042 124.598L73.038 124.279L71.957 124.293C71.449 124.299 71.192 124.057 71.185 123.565L71.145 120.406L72.337 120.391L72.38 123.783L76.547 123.73L76.504 120.338L77.696 120.323ZM76.56 124.762L74.79 124.785C74.462 124.789 74.2 124.801 74.004 124.82C73.799 124.839 73.595 124.878 73.391 124.938C73.179 124.998 73.016 125.086 72.903 125.202C72.789 125.319 72.697 125.475 72.626 125.673C72.555 125.879 72.521 126.129 72.525 126.424C72.529 126.719 72.569 126.964 72.645 127.16C72.721 127.356 72.817 127.51 72.933 127.624C73.05 127.737 73.215 127.821 73.428 127.875C73.634 127.93 73.839 127.964 74.044 127.978C74.241 127.992 74.503 127.997 74.831 127.993L76.601 127.97L76.56 124.762Z" fill="white"/>
<path d="M68.588 125.503C68.375 126.78 67.836 127.769 66.97 128.472C66.105 129.175 65.0463 129.422 63.7935 129.212C62.5489 129.004 61.6318 128.427 61.0423 127.481C60.4527 126.535 60.2647 125.424 60.4782 124.147C60.693 122.862 61.2331 121.868 62.0983 121.165C62.9635 120.462 64.0184 120.215 65.263 120.423C66.516 120.632 67.437 121.21 68.026 122.156C68.616 123.102 68.803 124.218 68.588 125.503ZM67.413 125.306C67.584 124.28 67.475 123.418 67.084 122.721C66.694 122.025 66.03 121.598 65.0927 121.441C64.1552 121.285 63.3927 121.473 62.8051 122.006C62.2094 122.538 61.8257 123.317 61.6541 124.343C61.4839 125.362 61.5939 126.219 61.9842 126.916C62.3664 127.611 63.0263 128.037 63.9638 128.194C64.9013 128.351 65.6679 128.163 66.264 127.631C66.859 127.099 67.242 126.324 67.413 125.306Z" fill="white"/>
<path d="M59.8687 119.758L58.119 128.245L55.7355 127.754C54.5959 127.519 53.7918 127.198 53.3234 126.792C52.8469 126.384 52.6906 125.783 52.8544 124.989C53.0794 123.897 53.7877 123.424 54.9792 123.57L55.0437 123.257C53.4646 122.881 52.8116 122.031 53.0846 120.707C53.255 119.88 53.6719 119.359 54.3353 119.145C54.9986 118.93 55.8921 118.939 57.0157 119.17L59.8687 119.758ZM57.6859 124.441L56.3858 124.173C55.6716 124.026 55.1334 123.999 54.7712 124.091C54.4074 124.192 54.1718 124.503 54.0642 125.025C54.0163 125.258 54.0118 125.462 54.051 125.637C54.0821 125.811 54.1407 125.953 54.2268 126.062C54.3033 126.179 54.4337 126.277 54.618 126.356C54.8007 126.444 54.9795 126.51 55.1544 126.555C55.3276 126.607 55.5627 126.664 55.8597 126.725L57.1598 126.993L57.6859 124.441ZM58.4925 120.529L56.7229 120.164C55.9525 120.005 55.3717 119.982 54.9805 120.094C54.5877 120.213 54.3309 120.566 54.2101 121.152C54.0959 121.706 54.2019 122.125 54.5281 122.41C54.8462 122.693 55.3784 122.911 56.1248 123.065L57.8944 123.43L58.4925 120.529Z" fill="white"/>
<path d="M50.366 122.4C49.7558 123.542 48.9286 124.308 47.8842 124.698C46.8399 125.087 45.7576 124.983 44.6374 124.384C43.5244 123.789 42.8397 122.95 42.5831 121.865C42.3266 120.78 42.5034 119.667 43.1135 118.525C43.7275 117.376 44.5567 116.607 45.601 116.217C46.6454 115.827 47.724 115.93 48.837 116.525C49.9572 117.123 50.6456 117.965 50.9021 119.05C51.1587 120.134 50.98 121.251 50.366 122.4ZM49.3144 121.838C49.8048 120.921 49.9764 120.069 49.829 119.284C49.6816 118.5 49.1888 117.883 48.3504 117.435C47.5121 116.987 46.7294 116.922 46.0022 117.24C45.2679 117.553 44.6555 118.169 44.1651 119.087C43.6785 119.998 43.5089 120.845 43.6563 121.63C43.7964 122.411 44.2856 123.026 45.124 123.474C45.9623 123.921 46.7487 123.989 47.483 123.675C48.2174 123.361 48.8278 122.749 49.3144 121.838Z" fill="white"/>
<path d="M33.6161 118.234L34.1196 117.332L36.7165 118.783L40.4384 112.119L41.4793 112.7L37.7574 119.364L40.3543 120.815L39.8508 121.716L33.6161 118.234Z" fill="white"/>
<path d="M30.3063 107.429C31.2158 106.155 32.5942 106.178 34.4414 107.497C35.615 108.335 36.2819 109.164 36.4421 109.983C36.5974 110.809 36.3561 111.668 35.718 112.562L34.7477 111.869C35.2715 111.135 35.4477 110.501 35.2761 109.966C35.0932 109.432 34.6083 108.885 33.8214 108.323C33.2212 107.894 32.7173 107.655 32.3096 107.606C31.9019 107.556 31.5671 107.715 31.3052 108.082C31.2099 108.215 31.1442 108.349 31.108 108.485C31.0604 108.622 31.059 108.772 31.1038 108.935C31.1372 109.099 31.1724 109.24 31.2096 109.358C31.2401 109.47 31.3249 109.626 31.464 109.826C31.5917 110.028 31.6893 110.173 31.757 110.262C31.8132 110.352 31.9375 110.517 32.13 110.755C32.311 110.995 32.431 111.151 32.4901 111.223C32.7521 111.562 32.9603 111.841 33.1146 112.062C33.2623 112.278 33.41 112.53 33.5577 112.816C33.7053 113.103 33.7949 113.358 33.8264 113.582C33.8578 113.806 33.8479 114.046 33.7965 114.301C33.7403 114.563 33.6241 114.817 33.4479 115.064C32.6051 116.244 31.3334 116.227 29.633 115.013C28.666 114.323 28.1182 113.574 27.9895 112.767C27.8608 111.96 28.0369 111.22 28.5179 110.547L29.4881 111.24C29.1072 111.773 29.0006 112.296 29.1683 112.809C29.3246 113.323 29.6795 113.778 30.233 114.173C31.2866 114.925 32.0324 114.995 32.4705 114.381C32.6896 114.074 32.7386 113.752 32.6176 113.414C32.4851 113.078 32.1759 112.58 31.6901 111.921C30.9879 110.987 30.5434 110.347 30.3567 110.002C29.8184 108.993 29.8016 108.136 30.3063 107.429Z" fill="white"/>
<path d="M46.4567 56.1064L89.096 80.7244M89.096 80.7244C84.968 76.4574 75.685 66.7664 81.157 57.7782M89.096 80.7244C83.337 79.2824 70.15 76.3534 65.1016 85.5864" stroke="white" stroke-width="2.54192" stroke-linecap="square" stroke-linejoin="bevel"/>
</svg>
