<svg width="151" height="19" viewBox="0 0 151 19" fill="none" xmlns="http://www.w3.org/2000/svg">
<path d="M8.57815 1.73032C10.1502 1.73032 11.5197 1.98963 12.6866 2.50824C13.8534 3.02685 14.7529 3.77236 15.385 4.74476C16.017 5.71717 16.3331 6.85163 16.3331 8.14817C16.3331 9.4447 16.017 10.5792 15.385 11.5516C14.7529 12.524 13.8534 13.2695 12.6866 13.7881C11.5197 14.3067 10.1502 14.566 8.57815 14.566H6.12284L6.12284 18.7473H0.385672L0.385672 1.73032L8.57815 1.73032ZM8.2135 10.1416C8.99142 10.1416 9.57487 9.97142 9.96383 9.63108C10.3528 9.27453 10.5473 8.78023 10.5473 8.14817C10.5473 7.51611 10.3528 7.02991 9.96383 6.68957C9.57487 6.33302 8.99142 6.15475 8.2135 6.15475H6.12284V10.1416H8.2135ZM33.0867 5.44975L27.7385 18.7473H22.0499L16.7017 5.44975H22.3416L25.0157 12.5726L27.8843 5.44975H33.0867ZM42.2893 1.73032C43.8614 1.73032 45.2309 1.98963 46.3977 2.50824C47.5646 3.02685 48.4641 3.77236 49.0961 4.74476C49.7282 5.71717 50.0442 6.85163 50.0442 8.14817C50.0442 9.4447 49.7282 10.5792 49.0961 11.5516C48.4641 12.524 47.5646 13.2695 46.3977 13.7881C45.2309 14.3067 43.8614 14.566 42.2893 14.566H39.834V18.7473H34.0969V1.73032L42.2893 1.73032ZM41.9247 10.1416C42.7026 10.1416 43.286 9.97142 43.675 9.63108C44.064 9.27453 44.2584 8.78023 44.2584 8.14817C44.2584 7.51611 44.064 7.02991 43.675 6.68957C43.286 6.33302 42.7026 6.15475 41.9247 6.15475H39.834V10.1416H41.9247Z" fill="#9999FF"/>
<path d="M66.7445 14.4688H65.1886V18.7473H59.4515V1.73032H67.6439C69.216 1.73032 70.5855 1.98963 71.7523 2.50824C72.9192 3.02685 73.8187 3.77236 74.4508 4.74476C75.0828 5.71717 75.3988 6.85163 75.3988 8.14817C75.3988 9.36367 75.1233 10.4252 74.5723 11.3328C74.0213 12.2404 73.2272 12.9616 72.1899 13.4964L75.7635 18.7473H69.6374L66.7445 14.4688ZM69.6131 8.14817C69.6131 7.51611 69.4186 7.02991 69.0296 6.68957C68.6407 6.33302 68.0572 6.15475 67.2793 6.15475H65.1886V10.1416H67.2793C68.0572 10.1416 68.6407 9.97142 69.0296 9.63108C69.4186 9.27453 69.6131 8.78023 69.6131 8.14817ZM84.4207 18.9904C82.9459 18.9904 81.617 18.6987 80.4339 18.1153C79.267 17.5156 78.3513 16.6972 77.6868 15.66C77.0224 14.6065 76.6901 13.4153 76.6901 12.0864C76.6901 10.7574 77.0224 9.57436 77.6868 8.53713C78.3513 7.48369 79.267 6.66526 80.4339 6.08182C81.617 5.49837 82.9459 5.20665 84.4207 5.20665C85.9117 5.20665 87.2407 5.49837 88.4076 6.08182C89.5907 6.66526 90.5063 7.48369 91.1546 8.53713C91.8191 9.57436 92.1513 10.7574 92.1513 12.0864C92.1513 13.4153 91.8191 14.6065 91.1546 15.66C90.5063 16.6972 89.5907 17.5156 88.4076 18.1153C87.2407 18.6987 85.9117 18.9904 84.4207 18.9904ZM84.4207 14.7119C85.0528 14.7119 85.5714 14.485 85.9766 14.0312C86.3817 13.5612 86.5843 12.9129 86.5843 12.0864C86.5843 11.2599 86.3817 10.6197 85.9766 10.1659C85.5714 9.71211 85.0528 9.48522 84.4207 9.48522C83.7887 9.48522 83.27 9.71211 82.8649 10.1659C82.4597 10.6197 82.2571 11.2599 82.2571 12.0864C82.2571 12.9129 82.4597 13.5612 82.8649 14.0312C83.27 14.485 83.7887 14.7119 84.4207 14.7119ZM102.744 5.20665C103.911 5.20665 104.981 5.49027 105.953 6.05751C106.942 6.60853 107.719 7.41076 108.287 8.4642C108.87 9.50143 109.162 10.7088 109.162 12.0864C109.162 13.464 108.87 14.6795 108.287 15.7329C107.719 16.7863 106.942 17.5967 105.953 18.1639C104.981 18.7149 103.911 18.9904 102.744 18.9904C101.107 18.9904 99.8917 18.5448 99.0975 17.6534V18.7473L93.8709 18.7473V0.709297H99.3649V6.34923C100.143 5.58751 101.269 5.20665 102.744 5.20665ZM101.431 14.7119C102.063 14.7119 102.582 14.485 102.987 14.0312C103.392 13.5612 103.595 12.9129 103.595 12.0864C103.595 11.2599 103.392 10.6197 102.987 10.1659C102.582 9.71211 102.063 9.48522 101.431 9.48522C100.799 9.48522 100.281 9.71211 99.8754 10.1659C99.4703 10.6197 99.2677 11.2599 99.2677 12.0864C99.2677 12.9129 99.4703 13.5612 99.8754 14.0312C100.281 14.485 100.799 14.7119 101.431 14.7119ZM117.918 18.9904C116.443 18.9904 115.114 18.6987 113.931 18.1153C112.765 17.5156 111.849 16.6972 111.184 15.66C110.52 14.6065 110.188 13.4153 110.188 12.0864C110.188 10.7574 110.52 9.57436 111.184 8.53713C111.849 7.48369 112.765 6.66526 113.931 6.08182C115.114 5.49837 116.443 5.20665 117.918 5.20665C119.409 5.20665 120.738 5.49837 121.905 6.08182C123.088 6.66526 124.004 7.48369 124.652 8.53713C125.317 9.57436 125.649 10.7574 125.649 12.0864C125.649 13.4153 125.317 14.6065 124.652 15.66C124.004 16.6972 123.088 17.5156 121.905 18.1153C120.738 18.6987 119.409 18.9904 117.918 18.9904ZM117.918 14.7119C118.55 14.7119 119.069 14.485 119.474 14.0312C119.879 13.5612 120.082 12.9129 120.082 12.0864C120.082 11.2599 119.879 10.6197 119.474 10.1659C119.069 9.71211 118.55 9.48522 117.918 9.48522C117.286 9.48522 116.768 9.71211 116.362 10.1659C115.957 10.6197 115.755 11.2599 115.755 12.0864C115.755 12.9129 115.957 13.5612 116.362 14.0312C116.768 14.485 117.286 14.7119 117.918 14.7119ZM137.165 18.2855C136.339 18.7554 135.212 18.9904 133.786 18.9904C131.922 18.9904 130.488 18.5448 129.483 17.6534C128.479 16.7458 127.976 15.3926 127.976 13.5936V10.1902H126.153V6.17906H127.976V2.45962H133.47V6.17906H136.193V10.1902H133.47V13.545C133.47 13.9502 133.576 14.2662 133.786 14.4931C133.997 14.72 134.272 14.8334 134.613 14.8334C135.083 14.8334 135.496 14.7119 135.853 14.4688L137.165 18.2855ZM143.752 18.9904C142.618 18.9904 141.5 18.8689 140.398 18.6258C139.296 18.3827 138.404 18.0667 137.724 17.6777L139.231 14.0555C139.847 14.4283 140.576 14.72 141.419 14.9307C142.261 15.1414 143.08 15.2467 143.874 15.2467C144.506 15.2467 144.944 15.1981 145.187 15.1008C145.446 14.9874 145.576 14.8253 145.576 14.6146C145.576 14.404 145.414 14.2581 145.089 14.1771C144.782 14.096 144.271 14.015 143.558 13.934C142.472 13.8043 141.548 13.6422 140.787 13.4478C140.025 13.2371 139.352 12.84 138.769 12.2566C138.202 11.6731 137.918 10.8385 137.918 9.75263C137.918 8.89368 138.177 8.12386 138.696 7.44318C139.215 6.7625 139.984 6.21957 141.005 5.81441C142.043 5.40924 143.282 5.20665 144.725 5.20665C145.73 5.20665 146.71 5.30389 147.666 5.49838C148.639 5.67665 149.465 5.94406 150.146 6.30061L148.639 9.9228C147.472 9.27453 146.192 8.9504 144.798 8.9504C143.598 8.9504 142.999 9.16109 142.999 9.58246C142.999 9.79315 143.161 9.94711 143.485 10.0444C143.809 10.1254 144.32 10.2064 145.017 10.2875C146.102 10.4171 147.018 10.5873 147.764 10.798C148.525 11.0086 149.19 11.4057 149.757 11.9892C150.34 12.5726 150.632 13.4072 150.632 14.4931C150.632 15.3196 150.373 16.0732 149.854 16.7539C149.336 17.4346 148.558 17.9775 147.52 18.3827C146.483 18.7879 145.227 18.9904 143.752 18.9904Z" fill="white"/>
</svg>
